<?xml version="1.0" encoding="UTF-8" standalone="no"?>
<!-- Created with Inkscape (http://www.inkscape.org/) -->

<svg
   xmlns:dc="http://purl.org/dc/elements/1.1/"
   xmlns:cc="http://creativecommons.org/ns#"
   xmlns:rdf="http://www.w3.org/1999/02/22-rdf-syntax-ns#"
   xmlns:svg="http://www.w3.org/2000/svg"
   xmlns="http://www.w3.org/2000/svg"
   xmlns:sodipodi="http://sodipodi.sourceforge.net/DTD/sodipodi-0.dtd"
   xmlns:inkscape="http://www.inkscape.org/namespaces/inkscape"
   width="108mm"
   height="108mm"
   viewBox="0 0 108 108"
   version="1.1"
   id="svg4767"
   inkscape:version="0.92.3 (2405546, 2018-03-11)"
   sodipodi:docname="bag2.svg">
  <defs
     id="defs4761" />
  <sodipodi:namedview
     id="base"
     pagecolor="#ffffff"
     bordercolor="#666666"
     borderopacity="1.0"
     inkscape:pageopacity="0.0"
     inkscape:pageshadow="2"
     inkscape:zoom="1.4142136"
     inkscape:cx="70.413526"
     inkscape:cy="327.62933"
     inkscape:document-units="mm"
     inkscape:current-layer="layer1"
     showgrid="false"
     inkscape:snap-bbox="true"
     inkscape:snap-global="false"
     inkscape:window-width="2400"
     inkscape:window-height="1271"
     inkscape:window-x="-9"
     inkscape:window-y="-9"
     inkscape:window-maximized="1" />
  <metadata
     id="metadata4764">
    <rdf:RDF>
      <cc:Work
         rdf:about="">
        <dc:format>image/svg+xml</dc:format>
        <dc:type
           rdf:resource="http://purl.org/dc/dcmitype/StillImage" />
        <dc:title></dc:title>
      </cc:Work>
    </rdf:RDF>
  </metadata>
  <g
     inkscape:groupmode="layer"
     id="layer3"
     inkscape:label="Layer 2">
    <rect
       style="opacity:1;fill:#eef4d7;fill-opacity:1;stroke:none;stroke-width:0.26458332"
       id="rect5568"
       width="110.99271"
       height="112.58021"
       x="-0.79374999"
       y="-0.61146098" />
  </g>
  <g
     inkscape:label="Layer 1"
     inkscape:groupmode="layer"
     id="layer1"
     transform="translate(0,-189)"
     style="display:inline">
    <circle
       style="opacity:0.5;fill:#ffffff;stroke:none;stroke-width:0.55732197"
       id="path4834"
       cx="53.999935"
       cy="251.13893"
       r="0" />
    <rect
       style="opacity:1;fill:#88aa00;fill-opacity:1;stroke:none;stroke-width:0.59300339"
       id="rect5527"
       width="56.500778"
       height="35.921021"
       x="25.749611"
       y="225.34505"
       ry="4.9097939" />
    <path
       style="opacity:1;fill:#668000;fill-opacity:1;stroke:none;stroke-width:0.59300339"
       d="m 53.999804,216.34924 -28.249955,10.12393 v 5.89835 1.98489 5.89835 l 28.249955,10.12393 28.250472,-10.12393 v -5.89835 -1.98489 -5.89835 z"
       id="rect5535"
       inkscape:connector-curvature="0" />
    <rect
       style="opacity:1;fill:#ffffff;fill-opacity:1;stroke:none;stroke-width:0.29319844"
       id="rect5545"
       width="34.660416"
       height="40.613544"
       x="36.644791"
       y="215.24374"
       ry="0" />
    <path
       style="opacity:1;fill:#f2f2f2;fill-opacity:1;stroke:none;stroke-width:0.26458332"
       d="m 40.216667,219.21263 v 2.64583 h 12.36927 v -2.64583 z m 14.882812,0 v 2.64583 H 67.46875 v -2.64583 z m -14.882812,5.89989 v 2.64584 h 12.36927 v -2.64584 z m 14.882812,0 v 2.64584 H 67.46875 v -2.64584 z m -14.882812,5.90042 v 2.64583 h 12.36927 v -2.64583 z m 14.882812,0 v 2.64583 H 67.46875 v -2.64583 z m -14.882812,5.90041 v 2.64584 h 12.36927 v -2.64584 z m 14.882812,0 v 2.64584 H 67.46875 v -2.64584 z m -14.882812,5.8999 v 2.64583 h 12.36927 v -2.64583 z m 14.882812,0 v 2.64583 H 67.46875 v -2.64583 z m -14.882812,5.90042 v 2.64583 h 12.36927 v -2.64583 z m 14.882812,0 v 2.64583 H 67.46875 v -2.64583 z"
       id="rect5547"
       inkscape:connector-curvature="0" />
    <path
       style="opacity:1;fill:#88aa00;fill-opacity:1;stroke:none;stroke-width:2.24127269"
       d="M 97.322266 193.71875 L 97.322266 254.57422 C 97.322266 264.85463 105.59849 273.13086 115.87891 273.13086 L 292.31055 273.13086 C 302.59096 273.13086 310.86719 264.85463 310.86719 254.57422 L 310.86719 193.71875 L 204.09375 231.98242 L 97.322266 193.71875 z "
       transform="matrix(0.26458333,0,0,0.26458333,0,189)"
       id="rect5570" />
    <path
       style="opacity:1;fill:#a1ca00;fill-opacity:1;stroke:none;stroke-width:2.24127269"
       d="M 183.52734 224.61133 L 183.52734 239.70117 L 204.83984 249.59766 L 224.66211 240.39453 L 224.66211 224.61133 L 204.09375 231.98242 L 183.52734 224.61133 z "
       transform="matrix(0.26458333,0,0,0.26458333,0,189)"
       id="path5601" />
    <path
       style="opacity:1;fill:#a1ca00;fill-opacity:1;stroke:none;stroke-width:0.26458332"
       d="m 41.580707,215.24374 v 6.73551 l 2.104265,2.10426 2.104781,-2.10478 v -6.73499 z"
       id="rect5608"
       inkscape:connector-curvature="0" />
  </g>
</svg>
