<?xml version="1.0" encoding="UTF-8" standalone="no"?>
<!-- Created with Inkscape (http://www.inkscape.org/) -->

<svg
   xmlns:dc="http://purl.org/dc/elements/1.1/"
   xmlns:cc="http://creativecommons.org/ns#"
   xmlns:rdf="http://www.w3.org/1999/02/22-rdf-syntax-ns#"
   xmlns:svg="http://www.w3.org/2000/svg"
   xmlns="http://www.w3.org/2000/svg"
   xmlns:sodipodi="http://sodipodi.sourceforge.net/DTD/sodipodi-0.dtd"
   xmlns:inkscape="http://www.inkscape.org/namespaces/inkscape"
   width="108"
   height="108"
   viewBox="0 0 28.575001 28.575001"
   version="1.1"
   id="svg8"
   inkscape:version="0.92.3 (2405546, 2018-03-11)"
   sodipodi:docname="bag1.svg">
  <defs
     id="defs2" />
  <sodipodi:namedview
     id="base"
     pagecolor="#ffffff"
     bordercolor="#666666"
     borderopacity="1.0"
     inkscape:pageopacity="0"
     inkscape:pageshadow="2"
     inkscape:zoom="2.5468939"
     inkscape:cx="23.616727"
     inkscape:cy="20.34174"
     inkscape:document-units="mm"
     inkscape:current-layer="layer7"
     showgrid="false"
     inkscape:window-width="1920"
     inkscape:window-height="1001"
     inkscape:window-x="-9"
     inkscape:window-y="1341"
     inkscape:window-maximized="1"
     units="px" />
  <metadata
     id="metadata5">
    <rdf:RDF>
      <cc:Work
         rdf:about="">
        <dc:format>image/svg+xml</dc:format>
        <dc:type
           rdf:resource="http://purl.org/dc/dcmitype/StillImage" />
        <dc:title></dc:title>
      </cc:Work>
    </rdf:RDF>
  </metadata>
  <g
     inkscape:groupmode="layer"
     id="layer7"
     inkscape:label="Layer 4">
    <g
       id="g1547"
       transform="translate(-0.54715136)">
      <g
         transform="translate(0.4407455,0.60195734)"
         id="g1529">
        <path
           inkscape:connector-curvature="0"
           style="opacity:1;fill:#d5ffd5;fill-opacity:1;stroke:none;stroke-width:0.21412048"
           d="M 21.988281,10.496094 A 36.044712,43.909016 0 0 0 -14.056641,54.40625 36.044712,43.909016 0 0 0 21.988281,98.314453 36.044712,43.909016 0 0 0 58.033203,54.40625 36.044712,43.909016 0 0 0 21.988281,10.496094 Z m 0,12.761718 A 25.568813,31.147466 0 0 1 47.556641,54.40625 25.568813,31.147466 0 0 1 21.988281,85.552734 25.568813,31.147466 0 0 1 -3.5820312,54.40625 25.568813,31.147466 0 0 1 21.988281,23.257812 Z"
           transform="scale(0.26458333)"
           id="ellipse1519" />
        <path
           inkscape:connector-curvature="0"
           style="opacity:1;fill:#aaffaa;fill-opacity:1;stroke:none;stroke-width:0.21412048"
           d="M 21.988281,10.496094 A 36.044712,43.909016 0 0 0 -14.056641,54.40625 36.044712,43.909016 0 0 0 21.988281,98.314453 36.044712,43.909016 0 0 0 58.033203,54.40625 36.044712,43.909016 0 0 0 21.988281,10.496094 Z m 0,9.041015 A 28.622798,34.867776 0 0 1 50.611328,54.40625 28.622798,34.867776 0 0 1 21.988281,89.273438 28.622798,34.867776 0 0 1 -6.6347656,54.40625 28.622798,34.867776 0 0 1 21.988281,19.537109 Z"
           transform="scale(0.26458333)"
           id="ellipse1521" />
        <path
           inkscape:connector-curvature="0"
           style="opacity:1;fill:#ccffaa;fill-opacity:1;stroke:none;stroke-width:0.21412048"
           d="M 21.988281,10.496094 A 36.044712,43.909016 0 0 0 -14.056641,54.40625 36.044712,43.909016 0 0 0 21.988281,98.314453 36.044712,43.909016 0 0 0 58.033203,54.40625 36.044712,43.909016 0 0 0 21.988281,10.496094 Z m 0,5.320312 A 31.676781,38.588083 0 0 1 53.664062,54.40625 31.676781,38.588083 0 0 1 21.988281,92.994141 31.676781,38.588083 0 0 1 -9.6894531,54.40625 31.676781,38.588083 0 0 1 21.988281,15.816406 Z"
           transform="scale(0.26458333)"
           id="path1306" />
      </g>
      <g
         transform="translate(17.593092,0.60195734)"
         id="g1537">
        <path
           inkscape:connector-curvature="0"
           id="path1531"
           transform="scale(0.26458333)"
           d="M 21.988281,10.496094 A 36.044712,43.909016 0 0 0 -14.056641,54.40625 36.044712,43.909016 0 0 0 21.988281,98.314453 36.044712,43.909016 0 0 0 58.033203,54.40625 36.044712,43.909016 0 0 0 21.988281,10.496094 Z m 0,12.761718 A 25.568813,31.147466 0 0 1 47.556641,54.40625 25.568813,31.147466 0 0 1 21.988281,85.552734 25.568813,31.147466 0 0 1 -3.5820312,54.40625 25.568813,31.147466 0 0 1 21.988281,23.257812 Z"
           style="opacity:1;fill:#d5ffd5;fill-opacity:1;stroke:none;stroke-width:0.21412048" />
        <path
           inkscape:connector-curvature="0"
           id="path1533"
           transform="scale(0.26458333)"
           d="M 21.988281,10.496094 A 36.044712,43.909016 0 0 0 -14.056641,54.40625 36.044712,43.909016 0 0 0 21.988281,98.314453 36.044712,43.909016 0 0 0 58.033203,54.40625 36.044712,43.909016 0 0 0 21.988281,10.496094 Z m 0,9.041015 A 28.622798,34.867776 0 0 1 50.611328,54.40625 28.622798,34.867776 0 0 1 21.988281,89.273438 28.622798,34.867776 0 0 1 -6.6347656,54.40625 28.622798,34.867776 0 0 1 21.988281,19.537109 Z"
           style="opacity:1;fill:#aaffaa;fill-opacity:1;stroke:none;stroke-width:0.21412048" />
        <path
           inkscape:connector-curvature="0"
           id="path1535"
           transform="scale(0.26458333)"
           d="M 21.988281,10.496094 A 36.044712,43.909016 0 0 0 -14.056641,54.40625 36.044712,43.909016 0 0 0 21.988281,98.314453 36.044712,43.909016 0 0 0 58.033203,54.40625 36.044712,43.909016 0 0 0 21.988281,10.496094 Z m 0,5.320312 A 31.676781,38.588083 0 0 1 53.664062,54.40625 31.676781,38.588083 0 0 1 21.988281,92.994141 31.676781,38.588083 0 0 1 -9.6894531,54.40625 31.676781,38.588083 0 0 1 21.988281,15.816406 Z"
           style="opacity:1;fill:#ccffaa;fill-opacity:1;stroke:none;stroke-width:0.21412048" />
      </g>
    </g>
  </g>
  <g
     inkscape:label="Layer 1"
     inkscape:groupmode="layer"
     id="layer1"
     transform="translate(0,-268.42499)"
     sodipodi:insensitive="true">
    <g
       id="g1106"
       transform="matrix(0.1989444,0,0,0.1989444,-6.7110535,266.9369)">
      <path
         style="opacity:1;fill:#5aa02c;fill-opacity:1;stroke:none;stroke-width:1.32993615"
         d="M 105.54987,23.388482 A 14.169461,14.215615 0 0 0 91.380321,37.602174 14.169461,14.215615 0 0 0 105.54987,51.818465 14.169461,14.215615 0 0 0 119.7194,37.602174 14.169461,14.215615 0 0 0 105.54987,23.388482 Z m 0,6.574353 a 7.6152084,7.6400138 0 0 1 7.61595,7.639339 7.6152084,7.6400138 0 0 1 -7.61595,7.641938 7.6152084,7.6400138 0 0 1 -7.613376,-7.641938 7.6152084,7.6400138 0 0 1 7.613376,-7.639339 z"
         id="path1355"
         inkscape:connector-curvature="0" />
      <g
         id="g1353"
         transform="translate(34.286557,1.4089823)">
        <path
           inkscape:connector-curvature="0"
           id="path1080"
           d="m 53.498494,35.062459 c -12.563928,0 -22.678718,10.11479 -22.678718,22.67872 v 16.857885 19.049999 12.322247 c 0,8.16655 6.574663,14.74122 14.741218,14.74122 h 51.404615 c 8.166551,0 14.741221,-6.57467 14.741221,-14.74122 V 93.649063 74.599064 57.741179 c 0,-12.56393 -10.11479,-22.67872 -22.678721,-22.67872 z"
           style="opacity:1;fill:#a1ca00;fill-opacity:1;stroke:none;stroke-width:0.26458332" />
        <path
           inkscape:connector-curvature="0"
           id="path1082"
           d="m 53.498494,35.062459 c -12.563928,0 -22.678718,10.11479 -22.678718,22.67872 V 69.459842 A 56.75418,32.459879 0 0 0 71.263301,79.16106 56.75418,32.459879 0 0 0 111.70683,69.432455 V 57.741179 c 0,-12.56393 -10.11479,-22.67872 -22.678722,-22.67872 z"
           style="opacity:0.5;fill:#00aa00;fill-opacity:1;stroke:none;stroke-width:0.26458332" />
        <rect
           ry="2.8343227"
           y="67.046089"
           x="67.281738"
           height="18.355692"
           width="7.9631314"
           id="rect1084"
           style="opacity:0.5;fill:#00aa00;fill-opacity:1;stroke:none;stroke-width:0.26458332" />
        <g
           style="fill:#ccffaa"
           transform="translate(-0.36294946,0.52916667)"
           id="g1096">
          <circle
             style="opacity:1;fill:#44aa00;fill-opacity:1;stroke:none;stroke-width:0.26458332"
             id="circle1086"
             cx="89.172134"
             cy="60.130589"
             r="6.0735745" />
          <circle
             r="6.0735745"
             cy="60.130589"
             cx="54.080368"
             id="circle1088"
             style="opacity:1;fill:#44aa00;fill-opacity:1;stroke:none;stroke-width:0.26458332" />
          <g
             id="g1094"
             style="fill:#c6e9af">
            <circle
               style="opacity:1;fill:#c6e9af;fill-opacity:1;stroke:none;stroke-width:0.26458332"
               id="circle1090"
               cx="54.080368"
               cy="60.130589"
               r="4.2515025" />
            <circle
               r="4.2515025"
               cy="60.130589"
               cx="89.172134"
               id="circle1092"
               style="opacity:1;fill:#c6e9af;fill-opacity:1;stroke:none;stroke-width:0.26458332" />
          </g>
        </g>
        <path
           inkscape:connector-curvature="0"
           id="path1098"
           d="m 43.122408,91.620863 v 12.163287 c 0,5.97305 8.417984,10.78162 18.873224,10.78162 h 18.536387 c 10.455241,0 18.872177,-4.80857 18.872177,-10.78162 V 91.620863 Z"
           style="opacity:1;fill:#5aa02c;fill-opacity:1;stroke:none;stroke-width:0.40482026" />
        <path
           inkscape:connector-curvature="0"
           id="path1100"
           d="M 71.26666,98.866316 A 26.318822,15.993747 0 0 0 46.321929,109.80312 c 3.382521,2.87647 9.129805,4.7625 15.677081,4.7625 h 18.536851 c 6.542172,0 12.285551,-1.88309 15.668813,-4.75579 A 26.318822,15.993747 0 0 0 71.26666,98.866316 Z"
           style="opacity:1;fill:#008000;fill-opacity:1;stroke:none;stroke-width:0.26458332" />
        <path
           inkscape:connector-curvature="0"
           id="path1102"
           d="m 53.792458,91.620762 c -0.02667,0.208606 -0.04118,0.423889 -0.04118,0.644922 v 1.204061 c 0,1.823048 0.950984,3.290755 2.132207,3.290755 h 30.759631 c 1.181223,0 2.132209,-1.467707 2.132209,-3.290755 v -1.204061 c 0,-0.221036 -0.01451,-0.436316 -0.04118,-0.644922 z"
           style="opacity:1;fill:#aade87;fill-opacity:1;stroke:none;stroke-width:0.22948208" />
        <path
           style="opacity:0.2;fill:#447821;fill-opacity:1;stroke:none;stroke-width:0.26458332"
           d="m 53.498494,35.062459 c -12.563928,0 -22.678718,10.11479 -22.678718,22.67872 v 16.857885 19.049999 12.322247 c 0,8.16655 6.574663,14.74122 14.741218,14.74122 h 51.404614 c 8.166552,0 14.741222,-6.57467 14.741222,-14.74122 V 93.649063 74.599064 57.741179 c 0,-12.56393 -10.11479,-22.67872 -22.678722,-22.67872 z m 33.429484,3.693832 c 7.834855,-0.0061 16.188282,3.977512 19.308382,11.49542 2.93699,12.333153 0.99699,25.360344 1.38183,38.14496 -0.89287,9.091708 3.67382,21.001179 -5.48132,27.089819 -13.263347,2.51499 -27.133715,0.80387 -40.634731,1.14102 -8.524335,-0.5911 -19.807756,3.23631 -25.453226,-5.48908 C 33.376712,95.617076 35.44156,79.515826 34.858288,63.753729 33.087377,54.019508 38.015749,42.797237 47.95878,39.806872 c 12.567825,-2.018684 25.54469,0.187377 38.21317,-1.037146 0.251465,-0.0085 0.50329,-0.01324 0.756028,-0.01344 z"
           id="path1104"
           inkscape:connector-curvature="0" />
        <path
           inkscape:connector-curvature="0"
           id="path1247"
           d="M 111.70683,67.844955 A 56.75418,32.459879 0 0 1 71.263302,77.57356 56.75418,32.459879 0 0 1 30.819777,67.872342 v 1.5875 a 56.75418,32.459879 0 0 0 40.443525,9.701218 56.75418,32.459879 0 0 0 40.443528,-9.728605 z"
           style="opacity:0.5;fill:#44aa00;fill-opacity:1;stroke:none;stroke-width:0.26458332" />
      </g>
    </g>
  </g>
  <g
     inkscape:groupmode="layer"
     id="layer6"
     inkscape:label="Layer 2"
     sodipodi:insensitive="true">
    <path
       style="opacity:0.1;fill:#447821;fill-opacity:1;stroke:none;stroke-width:0.19894439"
       d="m 40.642578,21.798828 c -8.925838,0 -16.19829,6.79246 -16.974609,15.509766 l 59.033203,43.716797 c 1.076789,-1.709694 1.708984,-3.730056 1.708984,-5.908203 V 65.851562 51.527344 47.642578 46.449219 38.851562 c 0,-9.447015 -7.605714,-17.052734 -17.052734,-17.052734 z"
       transform="scale(0.26458333)"
       id="path1478"
       inkscape:connector-curvature="0" />
    <path
       style="opacity:0.1;fill:#e5ffd5;fill-opacity:1;stroke:none;stroke-width:0.19894439"
       d="m 40.642578,21.798828 c -9.447017,0 -17.052734,7.605719 -17.052734,17.052734 v 7.617188 1.195312 3.863282 14.324218 9.265626 c 0,1.386603 0.263609,2.70635 0.724609,3.927734 L 80.693359,28.21875 C 77.573916,24.305819 72.773016,21.798828 67.357422,21.798828 Z"
       transform="scale(0.26458333)"
       id="path1362"
       inkscape:connector-curvature="0" />
  </g>
  <g
     inkscape:groupmode="layer"
     id="layer4"
     inkscape:label="Layer 3"
     transform="translate(0,-268.42499)"
     sodipodi:insensitive="true">
    <g
       id="g1282"
       transform="matrix(0.15635772,-0.020265,0.02752126,0.21234446,2.2231663,269.65668)">
      <path
         inkscape:connector-curvature="0"
         id="rect1252"
         d="m 117.22015,64.044668 c -1.10289,0 -1.99109,0.887682 -1.99109,1.990577 v 5.196583 c 0,1.102892 0.8882,1.990574 1.99109,1.990574 1.1029,0 1.99058,-0.887682 1.99058,-1.990574 v -5.196583 c 0,-1.102895 -0.88768,-1.990577 -1.99058,-1.990577 z m 0,6.371188 a 1.0966177,1.0966177 0 0 1 1.09658,1.096573 1.0966177,1.0966177 0 0 1 -1.09658,1.096576 1.0966177,1.0966177 0 0 1 -1.09657,-1.096576 1.0966177,1.0966177 0 0 1 1.09657,-1.096573 z"
         style="opacity:1;fill:#65b231;fill-opacity:1;stroke:none;stroke-width:0.26458332" />
      <path
         inkscape:connector-curvature="0"
         id="path1274"
         d="m 117.22016,64.044668 c -1.10289,0 -1.9911,0.88768 -1.9911,1.990574 v 5.196583 c 0,1.102892 0.88821,1.990577 1.9911,1.990577 1.1029,0 1.99057,-0.887685 1.99057,-1.990577 v -5.196583 c 0,-1.102894 -0.88767,-1.990574 -1.99057,-1.990574 z m 5.2e-4,0.704866 c 0.72502,0 1.28519,0.560168 1.28519,1.285192 v 5.197615 c 0,0.725017 -0.56019,1.285193 -1.28519,1.285193 -0.72503,0 -1.28675,-0.56101 -1.28675,-1.285193 v -5.197615 c 0,-0.724191 0.56172,-1.285192 1.28675,-1.285192 z"
         style="opacity:1;fill:#5ea82e;fill-opacity:1;stroke:none;stroke-width:0.26458332" />
    </g>
  </g>
</svg>
