<?xml version="1.0" encoding="UTF-8" standalone="no"?>
<!-- Created with Inkscape (http://www.inkscape.org/) -->

<svg
   xmlns:dc="http://purl.org/dc/elements/1.1/"
   xmlns:cc="http://creativecommons.org/ns#"
   xmlns:rdf="http://www.w3.org/1999/02/22-rdf-syntax-ns#"
   xmlns:svg="http://www.w3.org/2000/svg"
   xmlns="http://www.w3.org/2000/svg"
   xmlns:sodipodi="http://sodipodi.sourceforge.net/DTD/sodipodi-0.dtd"
   xmlns:inkscape="http://www.inkscape.org/namespaces/inkscape"
   width="26.835569mm"
   height="9.9942217mm"
   viewBox="0 0 26.835569 9.9942217"
   version="1.1"
   id="svg8"
   inkscape:version="0.92.3 (2405546, 2018-03-11)"
   sodipodi:docname="title.svg">
  <defs
     id="defs2" />
  <sodipodi:namedview
     id="base"
     pagecolor="#ffffff"
     bordercolor="#666666"
     borderopacity="1.0"
     inkscape:pageopacity="0.0"
     inkscape:pageshadow="2"
     inkscape:zoom="6.5737513"
     inkscape:cx="82.489661"
     inkscape:cy="-2.5627046"
     inkscape:document-units="mm"
     inkscape:current-layer="text817"
     showgrid="false"
     inkscape:window-width="1920"
     inkscape:window-height="1001"
     inkscape:window-x="-9"
     inkscape:window-y="1341"
     inkscape:window-maximized="1" />
  <metadata
     id="metadata5">
    <rdf:RDF>
      <cc:Work
         rdf:about="">
        <dc:format>image/svg+xml</dc:format>
        <dc:type
           rdf:resource="http://purl.org/dc/dcmitype/StillImage" />
        <dc:title></dc:title>
      </cc:Work>
    </rdf:RDF>
  </metadata>
  <g
     inkscape:label="Layer 1"
     inkscape:groupmode="layer"
     id="layer1"
     transform="translate(-18.032861,-67.41859)">
    <g
       aria-label="Bookbag"
       style="font-style:normal;font-weight:normal;font-size:10.58333302px;line-height:1.25;font-family:sans-serif;letter-spacing:0px;word-spacing:0px;fill:#000000;fill-opacity:1;stroke:none;stroke-width:0.26458332"
       id="text817">
      <path
         d="m 21.272973,74.932343 q 0,0.253214 -0.160197,0.413411 -0.160197,0.160197 -0.413411,0.160197 H 18.032861 V 67.41859 h 2.645833 q 0.253215,0 0.413412,0.160196 0.160197,0.160197 0.160197,0.413412 v 2.402954 q 0,0.320394 -0.289388,0.537435 -0.284221,0.170532 -0.568441,0.341064 l 0.609782,0.392741 q 0.268717,0.165365 0.268717,0.516764 z m -0.74414,-4.444173 v -2.43396 h -1.77767 v 2.919718 h 1.059367 z m 0.02067,4.382161 v -2.795695 l -0.728637,-0.475423 h -1.069703 v 3.271118 z"
         style="font-style:normal;font-variant:normal;font-weight:normal;font-stretch:normal;font-family:'Agency FB';-inkscape-font-specification:'Agency FB';stroke-width:0.26458332"
         id="path819" />
      <path
         d="m 25.345076,74.922007 q 0,0.583944 -0.583944,0.583944 h -1.725993 q -0.578776,0 -0.578776,-0.583944 v -3.860229 q 0,-0.583944 0.578776,-0.583944 h 1.725993 q 0.583944,0 0.583944,0.583944 z m -0.687297,-0.02067 V 71.082448 H 23.14366 v 3.818889 z"
         style="font-style:normal;font-variant:normal;font-weight:normal;font-stretch:normal;font-family:'Agency FB';-inkscape-font-specification:'Agency FB';stroke-width:0.26458332"
         id="path821" />
      <path
         d="m 29.355167,74.922007 q 0,0.583944 -0.583944,0.583944 H 27.04523 q -0.578776,0 -0.578776,-0.583944 v -3.860229 q 0,-0.583944 0.578776,-0.583944 h 1.725993 q 0.583944,0 0.583944,0.583944 z m -0.687297,-0.02067 v -3.818889 h -1.514119 v 3.818889 z"
         style="font-style:normal;font-variant:normal;font-weight:normal;font-stretch:normal;font-family:'Agency FB';-inkscape-font-specification:'Agency FB';stroke-width:0.26458332"
         id="path823" />
      <path
         d="M 33.298078,75.505951 H 32.54877 L 31.163842,72.9428 v 2.563151 H 30.476545 V 67.41859 h 0.687297 v 5.136637 l 1.29191,-2.077393 h 0.738973 v 0.02067 l -1.462443,2.222086 z"
         style="font-style:normal;font-variant:normal;font-weight:normal;font-stretch:normal;font-family:'Agency FB';-inkscape-font-specification:'Agency FB';stroke-width:0.26458332"
         id="path825" />
      <path
         d="m 36.920596,74.425914 q 0,0.465087 -0.304891,0.775146 -0.304891,0.304891 -0.764811,0.304891 h -1.81901 V 67.41859 h 0.687296 v 3.198771 q 0.408244,-0.05168 0.816488,-0.103353 0.516764,-0.06718 0.81132,-0.06718 0.573608,0 0.573608,0.563273 z M 36.2333,74.322561 v -3.229777 l -1.51412,0.04134 v 3.767212 h 0.950847 q 0.563273,0 0.563273,-0.578776 z"
         style="font-style:normal;font-variant:normal;font-weight:normal;font-stretch:normal;font-family:'Agency FB';-inkscape-font-specification:'Agency FB';stroke-width:0.26458332"
         id="path827" />
      <path
         d="m 40.884177,75.505951 h -0.676961 v -0.139526 q -0.408244,0.05684 -0.816487,0.10852 -0.506429,0.06201 -0.81132,0.06201 -0.563273,0 -0.563273,-0.558106 v -1.834513 q 0,-0.578776 0.583943,-0.578776 h 1.617472 v -1.514119 h -1.477945 v 0.857828 H 38.07298 v -0.847493 q 0,-0.583944 0.578776,-0.583944 h 1.653645 q 0.578776,0 0.578776,0.583944 z m -0.666626,-0.625285 v -1.777669 h -1.53479 v 1.808675 z"
         style="font-style:normal;font-variant:normal;font-weight:normal;font-stretch:normal;font-family:'Agency FB';-inkscape-font-specification:'Agency FB';stroke-width:0.26458332"
         id="path829" />
      <path
         d="m 44.86843,76.828868 q 0,0.583943 -0.583943,0.583943 h -1.632976 q -0.594278,0 -0.594278,-0.738973 0,-0.08785 0.0052,-0.26355 0.01034,-0.170532 0.01034,-0.248046 h 0.676962 v 0.666626 h 1.436604 v -1.322917 h -1.131713 q -0.459921,0 -0.764812,-0.304891 -0.30489,-0.310059 -0.30489,-0.775146 v -2.940389 q 0,-0.444418 0.268717,-0.738973 0.268717,-0.299724 0.707967,-0.299724 0.118856,0 1.224731,0.170533 v -0.139527 h 0.682129 z m -0.682129,-1.927531 v -3.798218 q -0.816487,-0.05168 -0.950846,-0.05168 -0.568441,0 -0.568441,0.578776 v 2.692342 q 0,0.578776 0.568441,0.578776 z"
         style="font-style:normal;font-variant:normal;font-weight:normal;font-stretch:normal;font-family:'Agency FB';-inkscape-font-specification:'Agency FB';stroke-width:0.26458332"
         id="path831" />
    </g>
  </g>
</svg>
